# xmcd
#
# Track frame offsets:
#	150
#	15574
#	31687
#	49252
#	67010
#	86042
#	101836
#	117869
#	136899
#	150973
#
# Disc length: 2233 seconds
#
# Revision: 0
# Processed by: cddbd v1.5.1PL2 Copyright (c) Steve Scherf et al.
# Submitted via: MusicManager 7.2.0.0 
#
DISCID=7808b70a
DTITLE=Dicte and The Sugar Bones - Dicte and The Sugar Bones
DYEAR=2006
DGENRE=Rock
TTITLE0=Sugarbone
TTITLE1=A Finer Form Of Love
TTITLE2=Won't Be The Same
TTITLE3=Cool Winds
TTITLE4=French Films
TTITLE5=Place Your Hands Where They Belong
TTITLE6=Get Rid Of Me
TTITLE7=She Waltzes The Blade
TTITLE8=Baby's On Fire
TTITLE9=Gone Through The Floor
EXTD=
EXTT0=
EXTT1=
EXTT2=
EXTT3=
EXTT4=
EXTT5=
EXTT6=
EXTT7=
EXTT8=
EXTT9=
PLAYORDER=
